<svg width="960" height="540" viewBox="0 0 960 540" fill="none" xmlns="http://www.w3.org/2000/svg">
  <defs>
    <linearGradient id="sky" x1="0" y1="0" x2="0" y2="1">
      <stop offset="0%" stop-color="#152033"/>
      <stop offset="42%" stop-color="#261c24"/>
      <stop offset="78%" stop-color="#0b0b0f"/>
      <stop offset="100%" stop-color="#040405"/>
    </linearGradient>
    <linearGradient id="sand" x1="0" y1="0" x2="0" y2="1">
      <stop offset="0%" stop-color="#1e1a22"/>
      <stop offset="100%" stop-color="#09090b"/>
    </linearGradient>
    <filter id="glowRed" x="-50%" y="-50%" width="200%" height="200%">
      <feGaussianBlur stdDeviation="4" result="b"/>
      <feMerge><feMergeNode in="b"/><feMergeNode in="SourceGraphic"/></feMerge>
    </filter>
    <style>
      .t { font: 700 24px Verdana, sans-serif; fill: #e9e4d2; }
      .s { font: 700 16px Verdana, sans-serif; fill: #c8c1ad; }
    </style>
  </defs>

  <rect width="960" height="540" fill="url(#sky)"/>
  <rect x="0" y="310" width="960" height="230" fill="url(#sand)"/>
  <rect x="0" y="360" width="960" height="22" fill="#111114"/>
  <rect x="0" y="408" width="960" height="22" fill="#151519"/>
  <rect x="0" y="456" width="960" height="22" fill="#101013"/>

  <rect x="84" y="54" width="64" height="22" fill="#5c4157"/>
  <rect x="96" y="42" width="42" height="28" fill="#f0a55c"/>
  <rect x="104" y="50" width="24" height="12" fill="#ffe6a0"/>

  <text x="54" y="40" class="t">Black Sand Creatures</text>
  <text x="86" y="92" class="s">Nibblorax</text>
  <text x="562" y="92" class="s">The Worm</text>

  <g transform="translate(112 188)">
    <rect x="-16" y="112" width="228" height="18" fill="#0b0b0c"/>
    <rect x="0" y="112" width="188" height="12" fill="#18151a"/>
    <rect x="22" y="108" width="28" height="8" fill="#2a262d"/>
    <rect x="132" y="106" width="24" height="8" fill="#2a262d"/>

    <rect x="22" y="22" width="84" height="28" fill="#0f0f11"/>
    <rect x="34" y="10" width="60" height="12" fill="#0f0f11"/>
    <rect x="52" y="2" width="24" height="8" fill="#17181b"/>

    <rect x="30" y="26" width="10" height="20" fill="#1f2024"/>
    <rect x="43" y="26" width="10" height="20" fill="#1f2024"/>
    <rect x="56" y="26" width="10" height="20" fill="#1f2024"/>
    <rect x="69" y="26" width="10" height="20" fill="#1f2024"/>
    <rect x="82" y="26" width="10" height="20" fill="#1f2024"/>

    <rect x="54" y="18" width="6" height="6" fill="#ff3a3a" filter="url(#glowRed)"/>
    <rect x="70" y="18" width="6" height="6" fill="#ff3a3a" filter="url(#glowRed)"/>

    <rect x="28" y="48" width="4" height="10" fill="#0b0b0c"/>
    <rect x="36" y="48" width="4" height="10" fill="#0b0b0c"/>
    <rect x="48" y="48" width="4" height="10" fill="#0b0b0c"/>
    <rect x="56" y="48" width="4" height="10" fill="#0b0b0c"/>
    <rect x="68" y="48" width="4" height="10" fill="#0b0b0c"/>
    <rect x="76" y="48" width="4" height="10" fill="#0b0b0c"/>
    <rect x="88" y="48" width="4" height="10" fill="#0b0b0c"/>
    <rect x="96" y="48" width="4" height="10" fill="#0b0b0c"/>

    <rect x="32" y="34" width="6" height="4" fill="#2a0e12"/>
    <rect x="90" y="34" width="6" height="4" fill="#2a0e12"/>
  </g>

  <g transform="translate(534 150)">
    <rect x="-20" y="154" width="260" height="18" fill="#09090a"/>
    <rect x="0" y="140" width="216" height="14" fill="#1b1416"/>

    <rect x="40" y="92" width="132" height="54" fill="#0f0f10"/>
    <rect x="52" y="100" width="18" height="30" fill="#252528"/>
    <rect x="74" y="100" width="18" height="30" fill="#252528"/>
    <rect x="96" y="100" width="18" height="30" fill="#252528"/>
    <rect x="118" y="100" width="18" height="30" fill="#252528"/>
    <rect x="140" y="100" width="18" height="30" fill="#252528"/>

    <rect x="72" y="74" width="68" height="28" fill="#151517"/>
    <rect x="82" y="68" width="48" height="8" fill="#d1b186"/>
    <rect x="82" y="102" width="48" height="8" fill="#d1b186"/>
    <rect x="92" y="76" width="28" height="26" fill="#2b1717"/>
    <rect x="100" y="80" width="12" height="18" fill="#120707"/>

    <rect x="48" y="56" width="10" height="16" fill="#2a2a2a"/>
    <rect x="52" y="50" width="4" height="6" fill="#ff4545" filter="url(#glowRed)"/>
    <rect x="68" y="46" width="10" height="26" fill="#2a2a2a"/>
    <rect x="72" y="40" width="4" height="6" fill="#ff4545" filter="url(#glowRed)"/>
    <rect x="88" y="40" width="10" height="32" fill="#2a2a2a"/>
    <rect x="92" y="34" width="4" height="6" fill="#ff4545" filter="url(#glowRed)"/>
    <rect x="108" y="42" width="10" height="30" fill="#2a2a2a"/>
    <rect x="112" y="36" width="4" height="6" fill="#ff4545" filter="url(#glowRed)"/>
    <rect x="128" y="48" width="10" height="24" fill="#2a2a2a"/>
    <rect x="132" y="42" width="4" height="6" fill="#ff4545" filter="url(#glowRed)"/>
  </g>

  <text x="78" y="488" class="s">Nibblorax: black trilobite shell, segmented back plates, low body, red eyes.</text>
  <text x="78" y="514" class="s">The Worm: broader Dune-inspired sandworm silhouette, still using your black body and red spike tips.</text>
</svg>
