<svg width="1400" height="900" viewBox="0 0 1400 900" fill="none" xmlns="http://www.w3.org/2000/svg" shape-rendering="crispEdges">
  <defs>
    <linearGradient id="sky" x1="0" y1="0" x2="0" y2="1">
      <stop offset="0%" stop-color="#0a0e14"/>
      <stop offset="40%" stop-color="#19141b"/>
      <stop offset="100%" stop-color="#050505"/>
    </linearGradient>
    <linearGradient id="sun" x1="0" y1="0" x2="0" y2="1">
      <stop offset="0%" stop-color="#ffe5a1"/>
      <stop offset="100%" stop-color="#ef9860"/>
    </linearGradient>
    <filter id="glow" x="-50%" y="-50%" width="200%" height="200%">
      <feGaussianBlur stdDeviation="6" result="b"/>
      <feMerge><feMergeNode in="b"/><feMergeNode in="SourceGraphic"/></feMerge>
    </filter>
    <style>
      .titleTop { font: 700 118px Georgia, serif; letter-spacing: 0.18em; fill: #efe0b2; }
      .titleBottom { font: 700 90px Georgia, serif; letter-spacing: 0.24em; fill: #d6c186; }
      .note { font: 500 24px Georgia, serif; fill: #b4aa8c; }
    </style>
  </defs>

  <rect width="1400" height="900" fill="url(#sky)"/>
  <rect x="928" y="70" width="244" height="88" fill="#4f392c" opacity="0.35"/>
  <rect x="964" y="82" width="170" height="64" fill="url(#sun)"/>
  <rect x="1002" y="98" width="92" height="28" fill="#ffe9ad"/>

  <rect x="0" y="430" width="1400" height="470" fill="#0b0b0d"/>
  <rect x="0" y="470" width="1400" height="70" fill="#121013"/>
  <rect x="0" y="540" width="1400" height="76" fill="#161417"/>
  <rect x="0" y="616" width="1400" height="86" fill="#100f12"/>
  <rect x="0" y="702" width="1400" height="82" fill="#09090a"/>
  <rect x="0" y="784" width="1400" height="116" fill="#050505"/>

  <rect x="0" y="512" width="220" height="22" fill="#1d1a1d"/>
  <rect x="190" y="500" width="270" height="34" fill="#181619"/>
  <rect x="418" y="486" width="248" height="48" fill="#141215"/>
  <rect x="640" y="468" width="290" height="66" fill="#171418"/>
  <rect x="905" y="490" width="238" height="44" fill="#141215"/>
  <rect x="1128" y="512" width="272" height="22" fill="#19171a"/>

  <g transform="translate(700 500)">
    <rect x="-240" y="176" width="480" height="28" fill="#070707"/>
    <rect x="-180" y="148" width="360" height="28" fill="#0e0d0f"/>
    <rect x="-150" y="116" width="300" height="34" fill="#0f0f10"/>
    <rect x="-126" y="72" width="252" height="48" fill="#111113"/>
    <rect x="-110" y="10" width="220" height="70" fill="#121214"/>
    <rect x="-92" y="-40" width="184" height="56" fill="#151619"/>

    <rect x="-72" y="-108" width="48" height="68" fill="#232327"/>
    <rect x="-12" y="-146" width="52" height="106" fill="#232327"/>
    <rect x="56" y="-126" width="48" height="86" fill="#232327"/>
    <rect x="108" y="-70" width="38" height="48" fill="#232327"/>
    <rect x="-132" y="-58" width="44" height="52" fill="#232327"/>
    <rect x="-55" y="-170" width="16" height="26" fill="#ff4a4a" filter="url(#glow)"/>
    <rect x="8" y="-208" width="16" height="26" fill="#ff4a4a" filter="url(#glow)"/>
    <rect x="76" y="-188" width="16" height="26" fill="#ff4a4a" filter="url(#glow)"/>
    <rect x="123" y="-132" width="12" height="18" fill="#ff4a4a" filter="url(#glow)"/>
    <rect x="-120" y="-120" width="12" height="18" fill="#ff4a4a" filter="url(#glow)"/>

    <rect x="-82" y="-6" width="164" height="136" fill="#0f1011"/>
    <rect x="-64" y="14" width="128" height="106" fill="#18181b"/>
    <rect x="-48" y="34" width="96" height="78" fill="#2a0d0d"/>
    <rect x="-18" y="56" width="36" height="34" fill="#060606"/>

    <rect x="-96" y="22" width="40" height="12" fill="#cdb18c"/>
    <rect x="56" y="22" width="40" height="12" fill="#cdb18c"/>
    <rect x="-56" y="0" width="38" height="34" fill="#cdb18c"/>
    <rect x="18" y="0" width="38" height="34" fill="#cdb18c"/>

    <rect x="-220" y="194" width="440" height="20" fill="#121011"/>
    <rect x="-194" y="214" width="54" height="10" fill="#090909"/>
    <rect x="140" y="214" width="62" height="10" fill="#090909"/>
  </g>

  <g transform="translate(120 560)">
    <rect x="0" y="116" width="126" height="20" fill="#4e4536"/>
    <rect x="16" y="88" width="18" height="34" fill="#4f653a"/>
    <rect x="52" y="78" width="18" height="44" fill="#4f653a"/>
    <rect x="88" y="92" width="18" height="30" fill="#4f653a"/>
    <rect x="2" y="50" width="48" height="40" fill="#3fa84d"/>
    <rect x="10" y="58" width="30" height="20" fill="#a8ff9b" filter="url(#glow)"/>
    <rect x="38" y="34" width="56" height="48" fill="#3fa84d"/>
    <rect x="48" y="44" width="34" height="24" fill="#a8ff9b" filter="url(#glow)"/>
    <rect x="82" y="56" width="44" height="36" fill="#3fa84d"/>
    <rect x="90" y="64" width="24" height="16" fill="#a8ff9b" filter="url(#glow)"/>

    <rect x="170" y="86" width="126" height="50" fill="#69707c"/>
    <rect x="190" y="56" width="34" height="38" fill="#9ca6b7"/>
    <rect x="232" y="72" width="28" height="64" fill="#8a94a6"/>
    <rect x="154" y="44" width="8" height="62" fill="#8cdaff"/>
    <rect x="140" y="56" width="32" height="10" fill="#d8f4ff"/>
  </g>

  <g transform="translate(1052 520)">
    <rect x="32" y="-118" width="164" height="112" fill="#d4deec" opacity="0.15"/>
    <rect x="48" y="-102" width="132" height="84" fill="#a1aec1" opacity="0.25"/>
    <rect x="64" y="-88" width="100" height="58" fill="#dce8f5" opacity="0.38"/>
    <rect x="88" y="-56" width="28" height="18" fill="#111318"/>

    <rect x="-26" y="168" width="132" height="28" fill="#080808"/>
    <rect x="-6" y="124" width="90" height="52" fill="#17110f"/>
    <rect x="12" y="78" width="62" height="58" fill="#2f251e"/>
    <rect x="2" y="60" width="86" height="24" fill="#433329"/>

    <rect x="-2" y="14" width="108" height="28" fill="#454d61"/>
    <rect x="8" y="-52" width="84" height="70" fill="#6f7890"/>
    <rect x="20" y="-98" width="60" height="48" fill="#7a839d"/>
    <rect x="32" y="-136" width="34" height="38" fill="#5f677f"/>
    <rect x="44" y="-161" width="10" height="26" fill="#d3c391"/>
    <rect x="40" y="-168" width="18" height="8" fill="#f05a5a"/>

    <rect x="20" y="-86" width="14" height="12" fill="#98d6f0"/>
    <rect x="42" y="-86" width="14" height="12" fill="#98d6f0"/>
    <rect x="20" y="-66" width="14" height="12" fill="#98d6f0"/>
    <rect x="42" y="-66" width="14" height="12" fill="#98d6f0"/>
    <rect x="20" y="-46" width="14" height="12" fill="#98d6f0"/>
    <rect x="42" y="-46" width="14" height="12" fill="#98d6f0"/>

    <rect x="-112" y="88" width="18" height="62" fill="#227c49"/>
    <rect x="-84" y="34" width="18" height="116" fill="#227c49"/>
    <rect x="-58" y="96" width="18" height="54" fill="#227c49"/>
    <rect x="-124" y="48" width="44" height="18" fill="#86ffae" filter="url(#glow)"/>
    <rect x="-96" y="16" width="44" height="18" fill="#86ffae" filter="url(#glow)"/>
    <rect x="-70" y="62" width="36" height="16" fill="#86ffae" filter="url(#glow)"/>

    <rect x="-62" y="132" width="138" height="18" fill="#060606" opacity="0.95"/>
    <rect x="-10" y="116" width="70" height="14" fill="#13100f"/>
    <rect x="14" y="110" width="22" height="12" fill="#070707"/>
    <rect x="52" y="112" width="18" height="30" fill="#17110f"/>
  </g>

  <text x="700" y="148" text-anchor="middle" class="titleTop">OPEN</text>
  <text x="700" y="836" text-anchor="middle" class="titleBottom">FOR SETTLEMENT</text>
  <text x="700" y="874" text-anchor="middle" class="note">32-bit-style pixel concept preview only</text>
</svg>
