<svg width="1100" height="700" viewBox="0 0 1100 700" fill="none" xmlns="http://www.w3.org/2000/svg" shape-rendering="crispEdges">
  <defs>
    <linearGradient id="sky" x1="0" y1="0" x2="0" y2="1">
      <stop offset="0%" stop-color="#132036"/>
      <stop offset="45%" stop-color="#261b2b"/>
      <stop offset="100%" stop-color="#060608"/>
    </linearGradient>
    <linearGradient id="sand" x1="0" y1="0" x2="0" y2="1">
      <stop offset="0%" stop-color="#151418"/>
      <stop offset="100%" stop-color="#070708"/>
    </linearGradient>
    <filter id="glowGreen" x="-50%" y="-50%" width="200%" height="200%">
      <feGaussianBlur stdDeviation="5" result="b"/>
      <feMerge><feMergeNode in="b"/><feMergeNode in="SourceGraphic"/></feMerge>
    </filter>
    <style>
      .title { font: 700 34px Verdana, sans-serif; fill: #ece3c7; }
      .label { font: 700 18px Verdana, sans-serif; fill: #d6cfbe; }
      .note { font: 700 16px Verdana, sans-serif; fill: #b7c0aa; }
    </style>
  </defs>

  <rect width="1100" height="700" fill="url(#sky)"/>
  <rect x="0" y="390" width="1100" height="310" fill="url(#sand)"/>
  <rect x="0" y="440" width="1100" height="24" fill="#111115"/>
  <rect x="0" y="504" width="1100" height="28" fill="#0c0c0f"/>
  <rect x="0" y="572" width="1100" height="28" fill="#101015"/>

  <rect x="118" y="60" width="72" height="24" fill="#58445b"/>
  <rect x="132" y="46" width="46" height="30" fill="#f0a65d"/>
  <rect x="142" y="56" width="24" height="12" fill="#ffe8aa"/>

  <text x="54" y="50" class="title">Native Trader Preview</text>
  <text x="86" y="92" class="label">More alien pass: longer snouts, crouched reptile frame, spikes trailing downward along the hunch</text>

  <g transform="translate(120 150)">
    <rect x="0" y="260" width="810" height="24" fill="#0a0a0b"/>
    <rect x="26" y="260" width="760" height="14" fill="#161519"/>

    <g transform="translate(24 0)">
      <rect x="34" y="146" width="46" height="76" fill="#4f2c73"/>
      <rect x="28" y="130" width="28" height="26" fill="#5b3485"/>
      <rect x="16" y="136" width="18" height="18" fill="#5b3485"/>
      <rect x="4" y="142" width="16" height="12" fill="#6c3f94"/>
      <rect x="38" y="222" width="12" height="56" fill="#26163a"/>
      <rect x="62" y="222" width="12" height="56" fill="#26163a"/>
      <rect x="68" y="160" width="18" height="54" fill="#3a2156"/>
      <rect x="84" y="172" width="14" height="42" fill="#26163a"/>
      <rect x="80" y="138" width="10" height="24" fill="#5c2f79"/>
      <rect x="88" y="154" width="10" height="22" fill="#55306f"/>
      <rect x="96" y="170" width="9" height="20" fill="#4d2c67"/>
      <rect x="104" y="186" width="8" height="18" fill="#44285c"/>
      <rect x="112" y="202" width="7" height="16" fill="#3b224f"/>
      <rect x="20" y="138" width="4" height="4" fill="#73ffad" filter="url(#glowGreen)"/>
      <rect x="28" y="138" width="4" height="4" fill="#73ffad" filter="url(#glowGreen)"/>
      <rect x="8" y="146" width="10" height="4" fill="#68ff9e" filter="url(#glowGreen)"/>
      <rect x="44" y="170" width="8" height="12" fill="#61ff98" filter="url(#glowGreen)"/>
      <rect x="32" y="178" width="8" height="12" fill="#61ff98" filter="url(#glowGreen)"/>
      <rect x="26" y="196" width="7" height="10" fill="#61ff98" filter="url(#glowGreen)"/>
      <rect x="24" y="236" width="20" height="10" fill="#171219"/>
      <rect x="74" y="236" width="20" height="10" fill="#171219"/>
      <rect x="12" y="252" width="18" height="8" fill="#0f0d10"/>
      <rect x="80" y="252" width="18" height="8" fill="#0f0d10"/>
    </g>

    <g transform="translate(250 10)">
      <rect x="44" y="128" width="56" height="98" fill="#552d79"/>
      <rect x="34" y="104" width="34" height="34" fill="#63358d"/>
      <rect x="18" y="112" width="22" height="24" fill="#63358d"/>
      <rect x="0" y="120" width="18" height="16" fill="#73409b"/>
      <rect x="50" y="226" width="14" height="62" fill="#28173d"/>
      <rect x="78" y="226" width="14" height="62" fill="#28173d"/>
      <rect x="86" y="144" width="22" height="64" fill="#40235d"/>
      <rect x="106" y="162" width="16" height="48" fill="#28173d"/>
      <rect x="100" y="122" width="12" height="28" fill="#5d307a"/>
      <rect x="110" y="140" width="12" height="26" fill="#54306f"/>
      <rect x="120" y="160" width="10" height="24" fill="#4a2b64"/>
      <rect x="130" y="178" width="9" height="22" fill="#432559"/>
      <rect x="138" y="198" width="8" height="20" fill="#39214d"/>
      <rect x="24" y="116" width="5" height="5" fill="#79ffb0" filter="url(#glowGreen)"/>
      <rect x="34" y="116" width="5" height="5" fill="#79ffb0" filter="url(#glowGreen)"/>
      <rect x="8" y="126" width="12" height="5" fill="#65ff9d" filter="url(#glowGreen)"/>
      <rect x="56" y="156" width="10" height="14" fill="#61ff98" filter="url(#glowGreen)"/>
      <rect x="42" y="168" width="8" height="12" fill="#61ff98" filter="url(#glowGreen)"/>
      <rect x="34" y="188" width="8" height="12" fill="#61ff98" filter="url(#glowGreen)"/>
      <rect x="34" y="242" width="22" height="10" fill="#171219"/>
      <rect x="88" y="242" width="22" height="10" fill="#171219"/>
      <rect x="18" y="260" width="18" height="8" fill="#0f0d10"/>
      <rect x="94" y="260" width="18" height="8" fill="#0f0d10"/>
    </g>

    <g transform="translate(512 20)">
      <rect x="32" y="142" width="48" height="82" fill="#4d2a72"/>
      <rect x="24" y="122" width="28" height="28" fill="#5f3388"/>
      <rect x="10" y="130" width="18" height="20" fill="#5f3388"/>
      <rect x="0" y="136" width="12" height="14" fill="#6d3f95"/>
      <rect x="38" y="224" width="12" height="58" fill="#26163a"/>
      <rect x="62" y="224" width="12" height="58" fill="#26163a"/>
      <rect x="66" y="156" width="18" height="56" fill="#392156"/>
      <rect x="82" y="170" width="14" height="42" fill="#26163a"/>
      <rect x="78" y="134" width="10" height="24" fill="#5b3076"/>
      <rect x="86" y="150" width="10" height="22" fill="#51306a"/>
      <rect x="94" y="166" width="9" height="20" fill="#4a2a63"/>
      <rect x="102" y="182" width="8" height="18" fill="#402557"/>
      <rect x="110" y="198" width="7" height="16" fill="#37204b"/>
      <rect x="16" y="134" width="4" height="4" fill="#73ffad" filter="url(#glowGreen)"/>
      <rect x="24" y="134" width="4" height="4" fill="#73ffad" filter="url(#glowGreen)"/>
      <rect x="4" y="142" width="10" height="4" fill="#68ff9e" filter="url(#glowGreen)"/>
      <rect x="42" y="166" width="8" height="12" fill="#61ff98" filter="url(#glowGreen)"/>
      <rect x="30" y="174" width="8" height="12" fill="#61ff98" filter="url(#glowGreen)"/>
      <rect x="24" y="192" width="7" height="10" fill="#61ff98" filter="url(#glowGreen)"/>
      <rect x="18" y="238" width="20" height="10" fill="#171219"/>
      <rect x="70" y="238" width="20" height="10" fill="#171219"/>
      <rect x="10" y="254" width="16" height="8" fill="#0f0d10"/>
      <rect x="76" y="254" width="16" height="8" fill="#0f0d10"/>
    </g>
  </g>

  <text x="82" y="620" class="note">This pass leans away from human proportions: longer snout, flatter face, more forward crouch, heavier tail-end hunch.</text>
  <text x="82" y="648" class="note">Back spikes now trail downward along the ridge instead of rising upward.</text>
</svg>
